<?xml version="1.0" encoding="utf-8"?>
<!-- Generator: Adobe Illustrator 16.0.0, SVG Export Plug-In . SVG Version: 6.00 Build 0)  -->
<!DOCTYPE svg PUBLIC "-//W3C//DTD SVG 1.1//EN" "http://www.w3.org/Graphics/SVG/1.1/DTD/svg11.dtd">
<svg version="1.1" id="Layer_1" xmlns="http://www.w3.org/2000/svg" xmlns:xlink="http://www.w3.org/1999/xlink" x="0px" y="0px"
	 width="112px" height="112px" viewBox="0 0 112 112" enable-background="new 0 0 112 112" xml:space="preserve">
<ellipse transform="matrix(0.7632 -0.6462 0.6462 0.7632 -24.9842 51.9046)" fill="none" cx="58.318" cy="60.037" rx="47.5" ry="45.001"/>
<text transform="matrix(-0.277 -0.9609 0.9609 -0.277 14.2334 77.1611)"><tspan x="0" y="0" font-family="'MuseoSansForDell-100'" font-size="9">S</tspan><tspan x="7.192" y="0.181" font-family="'MuseoSansForDell-100'" font-size="9" rotate="9.78">A</tspan><tspan x="14.906" y="1.68" font-family="'MuseoSansForDell-100'" font-size="9" rotate="20.496">G</tspan><tspan x="23.443" y="5.184" font-family="'MuseoSansForDell-100'" font-size="9" rotate="30.72">E</tspan><tspan x="29.867" y="9.295" font-family="'MuseoSansForDell-100'" font-size="9" rotate="38.257"> </tspan><tspan x="33.745" y="12.439" font-family="'MuseoSansForDell-100'" font-size="9" rotate="45.894">A</tspan><tspan x="39.13" y="18.228" font-family="'MuseoSansForDell-100'" font-size="9" rotate="55.796">D</tspan><tspan x="44.007" y="25.911" font-family="'MuseoSansForDell-100'" font-size="9" rotate="64.946">V</tspan><tspan x="47.083" y="33.195" font-family="'MuseoSansForDell-100'" font-size="9" rotate="72.651">I</tspan><tspan x="48.455" y="37.847" font-family="'MuseoSansForDell-100'" font-size="9" rotate="79.655">S</tspan><tspan x="49.656" y="44.956" font-family="'MuseoSansForDell-100'" font-size="9" rotate="89.647">O</tspan><tspan x="49.41" y="54.791" font-family="'MuseoSansForDell-100'" font-size="9" rotate="100.259">R</tspan><tspan x="47.752" y="62.664" font-family="'MuseoSansForDell-100'" font-size="9" rotate="109.535">S</tspan><tspan x="45.102" y="69.418" font-family="'MuseoSansForDell-100'" font-size="9" rotate="117.149"> </tspan><tspan x="42.759" y="73.785" font-family="'MuseoSansForDell-100'" font-size="9" rotate="124.793">L</tspan><tspan x="38.581" y="79.454" font-family="'MuseoSansForDell-100'" font-size="9" rotate="134.005">L</tspan><tspan x="33.638" y="84.387" font-family="'MuseoSansForDell-100'" font-size="9" rotate="144.675">C</tspan></text>
<path fill="none" stroke="#000000" stroke-miterlimit="10" d="M14.629,77.472"/>
<path fill="none" stroke="#000000" stroke-miterlimit="10" d="M15.523,81.414"/>
<path fill="none" stroke="#000000" stroke-miterlimit="10" d="M99.708,35.665c9.045,18.519,4.647,41.89-12.083,56.582
	c-19.918,17.49-49.776,16.055-66.688-3.206"/>
<path fill="none" stroke="#000000" stroke-miterlimit="10" d="M93.068,25.702"/>
<path fill="none" stroke="#000000" stroke-miterlimit="10" d="M85.395,18.755"/>
<path fill="none" stroke="#000000" stroke-miterlimit="10" d="M64.479,9.155"/>
<path fill="none" stroke="#000000" stroke-miterlimit="10" d="M43.481,11.68"/>
<path fill="none" stroke="#000000" stroke-miterlimit="10" d="M38.647,13.043"/>
<path fill="none" stroke="#000000" stroke-miterlimit="10" d="M40.829,14.012"/>
<path fill="none" stroke="#000000" stroke-miterlimit="10" d="M34.551,16.64"/>
<path fill="none" stroke="#000000" stroke-miterlimit="10" d="M12.63,50.497"/>
<path fill="none" stroke="#000000" stroke-miterlimit="10" d="M11.949,54.129"/>
<path fill="none" stroke="#000000" stroke-miterlimit="10" d="M11.501,58.772"/>
<path fill="none" stroke="#000000" stroke-miterlimit="10" d="M11.696,65.61"/>
<path fill="none" stroke="#000000" stroke-miterlimit="10" d="M12.377,70.004"/>
<path fill="none" stroke="#000000" stroke-miterlimit="10" d="M12.83,71.968"/>
<line fill="none" stroke="#000000" stroke-miterlimit="10" x1="95.426" y1="61.482" x2="95.426" y2="61.482"/>
<path fill="none" stroke="#000000" stroke-miterlimit="10" d="M103.295,46.1c0,0.007,0.001,0.012,0.003,0.012"/>
<g>
	<path fill="none" stroke="#000000" stroke-width="0.75" stroke-miterlimit="10" d="M42.521,74.407
		c3.528-21.438,15.783-37.238,27.398-35.327"/>
	<path fill="none" stroke="#000000" stroke-miterlimit="10" d="M69.919,39.08c-3.528,21.438-15.783,37.238-27.398,35.327"/>
	<line fill="none" stroke="#000000" stroke-width="0.5" stroke-miterlimit="10" x1="62.911" y1="49.433" x2="47.749" y2="70.328"/>
	<line fill="none" stroke="#000000" stroke-width="0.5" stroke-miterlimit="10" x1="56.246" y1="56.587" x2="57.204" y2="48.494"/>
	<line fill="none" stroke="#000000" stroke-width="0.5" stroke-miterlimit="10" x1="55.491" y1="61.177" x2="61.037" y2="60.819"/>
	<line fill="none" stroke="#000000" stroke-width="0.5" stroke-miterlimit="10" x1="51.052" y1="64.949" x2="51.134" y2="58.092"/>
</g>
</svg>
